
<svg version="1.0" xmlns="http://www.w3.org/2000/svg"
 width="121.000000pt" height="115.000000pt" viewBox="0 0 121.000000 115.000000"
 preserveAspectRatio="xMidYMid meet">

<g transform="translate(0.000000,115.000000) scale(0.100000,-0.100000)"
fill="#80d07c" stroke="none">
<path d="M868 912 c-63 -49 -157 -152 -207 -227 l-26 -40 -3 77 c-2 66 0 82
18 106 28 38 114 81 170 85 l45 4 -52 1 c-54 2 -121 -26 -171 -71 l-22 -21
-28 26 c-50 46 -121 68 -221 68 -84 0 -92 -2 -114 -26 -13 -14 -35 -31 -48
-38 -22 -11 -24 -19 -31 -121 -4 -61 -11 -148 -17 -195 -6 -47 -13 -123 -17
-168 -8 -122 -9 -122 175 -122 170 -1 220 -9 249 -38 31 -31 91 -30 121 2 12
13 39 26 59 30 20 3 60 10 87 15 28 6 95 10 149 10 l99 1 -7 107 c-3 60 -9
171 -12 248 -4 118 -9 147 -27 183 -12 24 -31 45 -42 48 -29 8 -60 53 -46 67
16 16 14 37 -3 37 -8 0 -43 -22 -78 -48z m-373 -29 c101 -41 113 -59 116 -173
3 -93 -8 -140 -32 -140 -6 0 -35 22 -65 49 -104 96 -180 74 -96 -28 46 -56 71
-91 117 -158 24 -36 42 -53 57 -53 28 0 58 28 58 53 0 26 70 171 109 227 18
25 56 81 86 126 68 101 80 112 94 85 14 -26 31 -224 31 -368 l0 -113 -100 0
c-108 0 -148 -11 -207 -56 l-33 -25 0 25 c0 15 -4 26 -10 26 -5 0 -10 -11 -10
-25 l0 -25 -37 24 c-61 39 -159 64 -242 62 l-74 -2 7 151 c4 82 11 166 16 185
4 19 11 65 15 102 l6 67 47 4 c26 2 55 4 64 5 10 1 47 -10 83 -25z m495 -91
c0 -26 4 -83 9 -127 5 -44 13 -132 16 -196 l7 -117 -129 -3 c-115 -4 -134 -7
-183 -31 -30 -15 -56 -25 -58 -24 -2 2 13 17 34 32 36 28 42 29 165 32 83 2
131 8 136 15 8 12 3 172 -12 370 -6 71 -5 97 4 97 7 0 11 -19 11 -48z m-745
-347 c-3 -30 -11 -55 -16 -55 -9 0 -7 32 7 99 9 44 16 12 9 -44z m209 -84 c81
-19 146 -52 146 -74 0 -5 -15 2 -33 16 -48 37 -98 47 -229 47 -90 0 -118 3
-118 13 0 22 136 21 234 -2z m64 -52 c17 -7 32 -17 32 -21 0 -5 -17 -1 -37 8
-25 11 -84 19 -168 24 l-130 8 135 -3 c84 -1 147 -8 168 -16z m392 11 c-69 -4
-141 -12 -160 -18 -19 -7 -42 -12 -50 -11 -8 1 10 9 40 19 41 14 85 18 175 17
l120 -1 -125 -6z"/>
<path d="M347 843 c-17 -17 -2 -23 58 -23 40 0 78 -6 100 -17 37 -18 58 -11
34 11 -27 26 -173 48 -192 29z"/>
<path d="M352 758 c-20 -20 -14 -23 55 -23 38 0 85 -4 107 -8 29 -6 37 -5 34
5 -10 30 -171 51 -196 26z"/>
<path d="M807 666 c-3 -8 1 -20 9 -26 9 -8 14 -9 14 -2 0 6 15 12 33 14 46 4
40 22 -9 26 -29 2 -43 -1 -47 -12z"/>
<path d="M786 584 c-23 -23 -20 -38 7 -29 12 4 46 10 75 12 36 3 52 9 52 19 0
21 -113 19 -134 -2z"/>
<path d="M783 495 c-18 -8 -33 -21 -33 -30 0 -17 26 -21 32 -5 2 6 29 14 61
17 36 4 56 10 54 17 -5 17 -78 18 -114 1z"/>
</g>
</svg>
